<?xml version="1.0" encoding="utf-8"?>
<!-- Svg Vector Icons : http://www.onlinewebfonts.com/icon -->
<!DOCTYPE svg PUBLIC "-//W3C//DTD SVG 1.1//EN" "http://www.w3.org/Graphics/SVG/1.1/DTD/svg11.dtd">
<svg version="1.1" xmlns="http://www.w3.org/2000/svg" xmlns:xlink="http://www.w3.org/1999/xlink" x="0px" y="0px" viewBox="0 0 256 256" enable-background="new 0 0 256 256" xml:space="preserve">
<metadata> Svg Vector Icons : http://www.onlinewebfonts.com/icon </metadata>
<g><g><path fill="#000000" d="M109.6,144.2c15.1,0,29.3-1.5,42.1-4.2c8.1-22.3,29.5-38.4,54.6-38.4c0.9,0,1.8,0.1,2.7,0.1c0-0.6,0.2-1.2,0.2-1.9V66c0,24.5-44.6,44.3-99.6,44.3C54.6,110.3,10,90.5,10,66v33.9C10,124.4,54.6,144.2,109.6,144.2"/><path fill="#000000" d="M109.6,98.2c55,0,99.6-19.8,99.6-44.3c0-24.5-44.6-44.3-99.6-44.3S10,29.4,10,53.8C10,78.4,54.6,98.2,109.6,98.2"/><path fill="#000000" d="M109.6,190.3c5.5,0,10.9-0.2,16.2-0.7l22.6-22.6c0,0,0.1-0.1,0.1-0.1c-0.3-2.3-0.4-4.7-0.4-7.1c0-2.3,0.2-4.6,0.4-6.9c-12,2.3-25.2,3.5-39,3.5c-55,0-99.6-19.8-99.6-44.3V146C10,170.4,54.6,190.3,109.6,190.3"/><path fill="#000000" d="M108,207.5l5.1-5.1c-1.2,0-2.3,0.1-3.5,0.1c-55,0-99.6-19.8-99.6-44.3V192c0,23.3,40.4,42.3,91.7,44.1C100.4,225,102.4,213.1,108,207.5"/><path fill="#000000" d="M166.6,159.8c0,21.9,17.8,39.7,39.7,39.7c21.9,0,39.7-17.8,39.7-39.7c0-21.9-17.8-39.7-39.7-39.7C184.4,120.1,166.6,137.8,166.6,159.8 M206.9,145.9c0-7.3,5.9-13.2,13.2-13.2c7.3,0,13.2,5.9,13.2,13.2c0,7.3-5.9,13.2-13.2,13.2C212.8,159.2,206.9,153.2,206.9,145.9 M193.2,207.1v1.5c0,2.2-1.8,4-4,4h-10.9v10.9c0,2.2-1.8,3.9-3.9,3.9h-10.9v10.9c0,2.2-1.8,4-4,4h-11.1l-2.8,2.8c-1.7,1.7-18.7,2.6-22.9-1.7c-4.3-4.2-3.3-21.2-1.7-22.9l40.5-40.5c1.4,3.2,3.2,6.1,5.3,8.9l-34.9,34.9c-1.7,1.7-1.7,4.5,0,6.1c1.7,1.7,4.5,1.7,6.1,0l34.4-34.5C178.2,200.9,185.3,204.9,193.2,207.1"/></g></g>
</svg>